<?xml version="1.0" encoding="utf-8"?>
<!-- Generator: Adobe Illustrator 26.3.1, SVG Export Plug-In . SVG Version: 6.00 Build 0)  -->
<svg version="1.1" id="Capa_1" xmlns="http://www.w3.org/2000/svg" xmlns:xlink="http://www.w3.org/1999/xlink" x="0px" y="0px"
	 viewBox="0 0 50 50" style="enable-background:new 0 0 50 50;" xml:space="preserve">
<style type="text/css">
	.st0{fill:#020202;}
</style>
<path class="st0" d="M32.46,9.84c-1.97,1.75-3.07,2.73-4.33,3.85c-2.08-2.24-4.11-4.42-6.06-6.52c-7.65,4.49-13.44,15.84-11.7,22.56
	c1.63,6.29,5.75,10.25,12.09,11.5c5.92,1.17,10.95-0.87,14.71-5.58c3.88-4.85,4.7-10.19,1.7-15.73
	C37.06,16.59,34.8,13.48,32.46,9.84z M32.04,22.67c2.17,4.88,1.22,8.59-2.48,10.73c-3.73,2.15-8.17,1.33-10.8-2
	c-2.84-3.6-1.86-7.93,2.98-12.52c2.06,2.47,4.12,4.93,6.32,7.56C29.45,25.13,30.6,24.04,32.04,22.67z"/>
</svg>
