<?xml version="1.0" encoding="utf-8"?>
<!-- Generator: Adobe Illustrator 26.3.1, SVG Export Plug-In . SVG Version: 6.00 Build 0)  -->
<svg version="1.1" id="Capa_1" xmlns="http://www.w3.org/2000/svg" xmlns:xlink="http://www.w3.org/1999/xlink" x="0px" y="0px"
	 viewBox="0 0 141.73 141.73" style="enable-background:new 0 0 141.73 141.73;" xml:space="preserve">
<style type="text/css">
	.st0{fill:#FFFFFF;}
</style>
<g>
	<g>
		<path class="st0" d="M148.52,143.65c-49.52,0-99.03,0-148.52,0C0,97.62,0,51.61,0,5.61c49.52,0,99.03,0,148.52,0
			C148.52,51.64,148.52,97.65,148.52,143.65z M104.93,105.52c-0.41,0.31-0.71,0.53-1,0.76c-3.16,2.54-6.02,5.63-9.53,7.53
			c-16.3,8.79-32.82,8.44-48.8-0.62C18.85,98.02,12.74,61.71,32.7,38.32c0.94-1.1,1.96-2.15,2.94-3.22
			c-2.01,3.77-4.12,7.34-2.63,11.8c0.53-2.16,1.06-4.31,1.59-6.46c0,2.83,0,5.59,0,8.36c0,2.51,2.37,4.49,4.84,4.04
			c2.22-0.4,6.7,1.69,7.92,3.71c2.4,3.96,3.01,4.21,7.15,2.91c1.91,1.97,1.26,4.17-0.2,5.73c-3.2,3.41-1.77,7.38-1.01,10.74
			c0.9,4,3.5,7.78,7.14,9.97c3.94,2.37,5.29,5.64,5.19,9.83c-0.16,7.13,2.28,13.69,4.28,20.35c0.08,0.26,0.27,0.5,0.65,1.19
			c0-0.8-0.08-1.11,0.01-1.35c1.1-2.9-0.92-6.96,3.25-8.76c0.29-0.13,0.25-0.96,0.42-1.45c0.14-0.38,0.31-0.78,0.56-1.09
			c1.64-2.1,3.55-4.04,4.89-6.32c1.06-1.82,1.98-3.31,4.3-3.45c0.57-0.03,1.3-0.52,1.64-1.02c0.89-1.3,1.84-2.65,2.33-4.12
			c1.04-3.14,2.3-6.05,4.95-8.24c0.64-0.53,1.32-1.95,1.04-2.46c-1.04-1.94-2.09-4.5-3.83-5.27c-2.07-0.92-3.68-2.37-5.69-3.45
			c-0.42,0.37-0.84,0.74-1.23,1.09c-0.28-1.25-0.64-2.41-0.8-3.6c-0.44-3.38-2.25-5.2-5.64-5.71c-0.66-0.1-1.43-0.52-1.86-1.04
			c-2.34-2.81-4.73-5.42-8.91-4.83c-0.42,0.06-0.88-0.2-1.32-0.25c-0.97-0.12-1.94-0.2-3.09-0.31c0,0.01,0.03-0.41,0.1-1.61
			c-2.35,2.02-4.2,3.61-5.58,4.8c-1.57,0-2.8,0.2-3.92-0.07c-0.8-0.19-1.83-0.86-2.08-1.56c-0.32-0.91-0.22-2.15,0.14-3.08
			c0.79-2.08-0.29-2.42-1.91-2.44c-0.57-0.01-1.14,0.06-2.21,0.12c1.05-2.22,1.93-4.08,2.82-5.94c-0.2-0.15-0.4-0.3-0.6-0.45
			c-0.82,0.7-1.65,1.38-2.44,2.11c-0.77,0.72-1.4,1.63-2.26,2.2c-1.27,0.84-2.8,0.04-3.05-1.44c-0.66-3.88,3.32-9.15,7.23-9.58
			c0.67-0.08,1.61,0.03,1.96-0.36c1.46-1.64,3.05-1.02,4.58-0.69c0.31,1.34,0.57,2.53,0.84,3.71c0.23,0.02,0.46,0.05,0.69,0.07
			c0.34-0.93,0.99-1.87,0.98-2.8c-0.04-2.51,1.39-3.64,3.43-4.52c1.16-0.5,2.25-1.21,3.27-1.96c1.05-0.76,1.9-1.82,2.99-2.5
			c1.31-0.82,2.76-1.48,4.2-2.04c1.26-0.5,2.59-0.91,3.93-1.11c1.24-0.18,2.53-0.04,3.8-0.04c-0.03-0.15-0.06-0.31-0.1-0.46
			c-0.83-0.36-1.65-0.71-2.48-1.07c0.09-0.2,0.17-0.4,0.26-0.6c1.76-0.33,3.52-0.65,5.71-1.06c-1.08-0.7-1.75-1.13-2.41-1.56
			c2.8,0.37,5.4,1.1,7.94,2c8.51,3,15.48,8.18,21.38,14.96c2.44,2.81,3.93,5.57,1.68,9.15c-0.15,0.24-0.18,0.57-0.22,0.87
			c-0.86,6.56,0.8,12.86,2.05,19.19c0.1,0.53,0.97,1.05,1.59,1.3c3.31,1.33,5.67,3.46,5.81,7.22c0.09,2.41-0.09,4.85-0.45,7.24
			c-0.38,2.52,0.7,3.81,3.1,4.54c0.24-0.68,0.51-1.36,0.72-2.05c2.58-8.5,2.99-17.12,1.37-25.85
			c-5.29-28.59-32.48-48.92-62.63-44.05c-30.34,4.9-50.55,33.53-45.36,63.59c6.65,38.49,50.79,57.88,83.7,36.64
			c7.28-4.7,5.71-2.66,5.02-10.59C105.18,105.81,105.11,105.76,104.93,105.52z M137.86,109.03c0-1.58-0.08-2.73,0.02-3.85
			c0.19-2.09-0.6-3.37-2.43-4.56c-5.91-3.84-11.63-7.97-17.47-11.92c-1.06-0.72-1.55-1.41-1.46-2.75c0.2-2.8,0.19-5.61,0.26-8.42
			c0.08-3.73-1.89-5.95-5.27-5.98c-3.21-0.02-5.37,2.42-5.26,6.06c0.08,2.73,0.19,5.46,0.4,8.18c0.11,1.37-0.36,2.17-1.51,2.94
			c-6.17,4.14-12.29,8.36-18.38,12.62c-0.65,0.46-1.36,1.29-1.45,2.01c-0.21,1.78-0.07,3.61-0.07,5.65
			c7.49-2.7,14.78-5.33,22.26-8.03c0.33,3.99,0.39,7.73,1.02,11.37c0.56,3.3-0.12,5.59-3.17,7.26c-1.54,0.84-3.04,2.13-2.08,4.52
			c2.78-0.84,5.59-2.39,8.37-2.34c2.84,0.06,5.65,1.7,8.48,2.65c0.18-0.12,0.37-0.24,0.55-0.36c-0.46-1.16-0.59-2.95-1.43-3.39
			c-4.35-2.28-5.65-5.61-4.42-10.22c0.25-0.94,0.17-1.96,0.26-2.94c0.2-2.13,0.4-4.26,0.62-6.57
			C123.22,103.72,130.38,106.32,137.86,109.03z M52.36,44.03c1.67,0.53,3.32,0.66,4.41,1.51c1.45,1.14,1.55,1.42,3.26,0.36
			C57.56,45.22,55.66,42.71,52.36,44.03z M61.2,46.36c0.69,2.67,1.04,2.72,4.15,0.62C64.05,46.79,62.75,46.6,61.2,46.36z"/>
		<path d="M104.93,105.52c0.18,0.24,0.25,0.29,0.26,0.34c0.69,7.93,2.26,5.9-5.02,10.59c-32.91,21.24-77.05,1.85-83.7-36.64
			c-5.2-30.07,15.02-58.69,45.36-63.59c30.15-4.87,57.34,15.46,62.63,44.05c1.61,8.73,1.2,17.35-1.37,25.85
			c-0.21,0.69-0.48,1.37-0.72,2.05c-2.4-0.72-3.48-2.02-3.1-4.54c0.36-2.38,0.53-4.83,0.45-7.24c-0.13-3.75-2.5-5.89-5.81-7.22
			c-0.62-0.25-1.48-0.77-1.59-1.3c-1.26-6.33-2.92-12.63-2.05-19.19c0.04-0.3,0.07-0.63,0.22-0.87c2.25-3.58,0.76-6.34-1.68-9.15
			c-5.9-6.78-12.87-11.96-21.38-14.96c-2.54-0.9-5.14-1.63-7.94-2c0.66,0.43,1.33,0.86,2.41,1.56c-2.19,0.4-3.95,0.73-5.71,1.06
			c-0.09,0.2-0.17,0.4-0.26,0.6c0.83,0.36,1.65,0.71,2.48,1.07c0.03,0.15,0.06,0.31,0.1,0.46c-1.27,0-2.56-0.15-3.8,0.04
			c-1.34,0.2-2.67,0.61-3.93,1.11c-1.45,0.57-2.89,1.22-4.2,2.04c-1.09,0.68-1.94,1.74-2.99,2.5c-1.03,0.75-2.11,1.46-3.27,1.96
			c-2.04,0.87-3.47,2.01-3.43,4.52c0.01,0.93-0.63,1.86-0.98,2.8c-0.23-0.02-0.46-0.05-0.69-0.07c-0.27-1.18-0.54-2.37-0.84-3.71
			c-1.54-0.33-3.13-0.95-4.58,0.69c-0.35,0.39-1.29,0.29-1.96,0.36c-3.91,0.44-7.89,5.7-7.23,9.58c0.25,1.49,1.78,2.28,3.05,1.44
			c0.86-0.57,1.49-1.48,2.26-2.2c0.79-0.73,1.62-1.41,2.44-2.11c0.2,0.15,0.4,0.3,0.6,0.45c-0.88,1.86-1.76,3.72-2.82,5.94
			c1.07-0.06,1.64-0.13,2.21-0.12c1.62,0.03,2.7,0.37,1.91,2.44c-0.36,0.93-0.46,2.17-0.14,3.08c0.25,0.7,1.28,1.37,2.08,1.56
			c1.12,0.26,2.35,0.07,3.92,0.07c1.38-1.19,3.23-2.77,5.58-4.8c-0.08,1.2-0.1,1.62-0.1,1.61c1.16,0.11,2.13,0.19,3.09,0.31
			c0.45,0.05,0.9,0.31,1.32,0.25c4.18-0.59,6.57,2.02,8.91,4.83c0.43,0.52,1.19,0.94,1.86,1.04c3.39,0.51,5.2,2.32,5.64,5.71
			c0.15,1.19,0.51,2.35,0.8,3.6c0.39-0.35,0.81-0.72,1.23-1.09c2.01,1.08,3.62,2.53,5.69,3.45c1.74,0.77,2.79,3.33,3.83,5.27
			c0.27,0.51-0.4,1.94-1.04,2.46c-2.65,2.19-3.91,5.09-4.95,8.24c-0.49,1.47-1.44,2.82-2.33,4.12c-0.34,0.5-1.06,0.99-1.64,1.02
			c-2.32,0.14-3.24,1.63-4.3,3.45c-1.33,2.28-3.25,4.22-4.89,6.32c-0.25,0.32-0.42,0.71-0.56,1.09c-0.17,0.49-0.13,1.32-0.42,1.45
			c-4.17,1.8-2.15,5.86-3.25,8.76c-0.09,0.24-0.01,0.55-0.01,1.35c-0.38-0.69-0.57-0.93-0.65-1.19c-1.99-6.66-4.44-13.22-4.28-20.35
			c0.09-4.2-1.26-7.46-5.19-9.83c-3.64-2.19-6.24-5.97-7.14-9.97c-0.76-3.36-2.19-7.33,1.01-10.74c1.46-1.56,2.11-3.75,0.2-5.73
			c-4.14,1.3-4.76,1.05-7.15-2.91c-1.22-2.02-5.69-4.11-7.92-3.71c-2.47,0.45-4.84-1.53-4.84-4.04c0-2.76,0-5.52,0-8.36
			c-0.53,2.14-1.06,4.3-1.59,6.46c-1.49-4.45,0.63-8.02,2.63-11.8c-0.98,1.07-2,2.11-2.94,3.22c-19.95,23.4-13.85,59.71,12.9,74.88
			c15.98,9.06,32.51,9.41,48.8,0.62c3.51-1.89,6.37-4.99,9.53-7.53C104.22,106.05,104.52,105.83,104.93,105.52z M66.45,20.78
			c0.82,0.72,1.4,1.23,2.3,2.02c0.83-0.4,2.09-1.01,3.36-1.62c-0.06-0.14-0.11-0.27-0.17-0.41C70.17,20.78,68.4,20.78,66.45,20.78z"
			/>
		<path d="M137.86,109.03c-7.48-2.72-14.64-5.32-22.18-8.06c-0.22,2.31-0.43,4.44-0.62,6.57c-0.09,0.98-0.01,2.01-0.26,2.94
			c-1.23,4.6,0.07,7.94,4.42,10.22c0.84,0.44,0.97,2.22,1.43,3.39c-0.18,0.12-0.37,0.24-0.55,0.36c-2.82-0.95-5.63-2.59-8.48-2.65
			c-2.78-0.06-5.59,1.5-8.37,2.34c-0.97-2.39,0.54-3.68,2.08-4.52c3.05-1.67,3.74-3.96,3.17-7.26c-0.62-3.64-0.68-7.38-1.02-11.37
			c-7.48,2.7-14.77,5.33-22.26,8.03c0-2.04-0.14-3.87,0.07-5.65c0.09-0.73,0.8-1.56,1.45-2.01c6.09-4.26,12.21-8.48,18.38-12.62
			c1.15-0.77,1.62-1.57,1.51-2.94c-0.21-2.72-0.32-5.45-0.4-8.18c-0.11-3.63,2.04-6.08,5.26-6.06c3.39,0.03,5.36,2.25,5.27,5.98
			c-0.06,2.81-0.06,5.62-0.26,8.42c-0.09,1.34,0.4,2.03,1.46,2.75c5.84,3.95,11.56,8.08,17.47,11.92c1.83,1.19,2.63,2.47,2.43,4.56
			C137.78,106.31,137.86,107.45,137.86,109.03z"/>
		<path d="M52.36,44.03c3.29-1.31,5.2,1.19,7.66,1.87c-1.7,1.06-1.8,0.77-3.26-0.36C55.69,44.68,54.04,44.56,52.36,44.03z"/>
		<path d="M61.2,46.36c1.56,0.23,2.85,0.43,4.15,0.62C62.24,49.09,61.89,49.03,61.2,46.36z"/>
		<path class="st0" d="M66.45,20.78c1.95,0,3.72,0,5.49,0c0.06,0.14,0.11,0.27,0.17,0.41c-1.26,0.61-2.53,1.22-3.36,1.62
			C67.84,22.01,67.27,21.5,66.45,20.78z"/>
	</g>
</g>
</svg>
