<?xml version="1.0" encoding="utf-8"?>
<!-- Generator: Adobe Illustrator 26.3.1, SVG Export Plug-In . SVG Version: 6.00 Build 0)  -->
<svg version="1.1" id="Capa_1" xmlns="http://www.w3.org/2000/svg" xmlns:xlink="http://www.w3.org/1999/xlink" x="0px" y="0px"
	 viewBox="0 0 344 91" style="enable-background:new 0 0 344 91;" xml:space="preserve">
<polygon points="61.9,80.8 74.2,80.8 74.2,48.5 61.9,60.9 "/>
<path d="M143.5,62.2c-4,4-9.4,6.2-15.1,6.2c-3.7,0-7.2-0.9-10.4-2.7l-9,9c5.7,4,12.4,6.1,19.4,6.1c9,0,17.5-3.5,23.9-9.9
	c6.4-6.4,9.9-14.8,9.9-23.9c0-7-2.1-13.7-6.1-19.4l-9,9c1.8,3.2,2.7,6.7,2.7,10.4C149.8,52.8,147.6,58.1,143.5,62.2z"/>
<polygon points="6.7,80.8 19.1,80.8 19.1,44.4 40.5,65.8 61.9,44.4 61.9,44.4 74.2,32.1 74.2,14.5 40.5,48.3 6.7,14.5 "/>
<path d="M109.8,57.5c-1.8-3.2-2.7-6.7-2.7-10.4c0-5.7,2.2-11.1,6.2-15.1c4-4,9.4-6.2,15.1-6.2c3.7,0,7.2,0.9,10.4,2.7l9-9
	c-5.7-4-12.4-6.1-19.4-6.1c-9,0-17.5,3.5-23.9,9.9c-6.4,6.4-9.9,14.9-9.9,23.9c0,7,2.1,13.7,6.1,19.4L109.8,57.5z"/>
<polygon points="238.2,79.9 250.5,79.9 250.5,47.6 238.2,60 "/>
<path d="M319.8,61.2c-4,4-9.4,6.2-15.1,6.2c-3.7,0-7.2-0.9-10.4-2.7l-9,9c5.7,4,12.4,6.1,19.4,6.1c9,0,17.5-3.5,23.9-9.9
	c6.4-6.4,9.9-14.8,9.9-23.9c0-7-2.1-13.7-6.1-19.4l-9,9c1.8,3.2,2.7,6.7,2.7,10.4C326.1,51.8,323.8,57.2,319.8,61.2z"/>
<polygon points="183,79.9 195.4,79.9 195.4,43.5 216.8,64.9 238.2,43.5 238.2,43.5 250.5,31.1 250.5,13.6 216.8,47.4 183,13.6 "/>
<path d="M286.1,56.5c-1.8-3.2-2.7-6.7-2.7-10.4c0-5.7,2.2-11.1,6.2-15.1c4-4,9.4-6.2,15.1-6.2c3.7,0,7.2,0.9,10.4,2.7l9-9
	c-5.7-4-12.4-6.1-19.4-6.1c-9,0-17.5,3.5-23.9,9.9c-6.4,6.4-9.9,14.9-9.9,23.9c0,7,2.1,13.7,6.1,19.4L286.1,56.5z"/>
</svg>
